# xmcd
# 
# Track frame offsets:
#     150
#     13076
#     25895
#     41693
#     56338
#     72100
#     84263
#     102476
#     120689
#     142406
#     159901
#     178436
#     194197
#     211643
#     231829
#     246314
#     258004
#     275730
#     289590
#     310343
# 
# Disc length: 4359
# 
# Revision: 2
# Processed by: cddbd v1.5.2PL0 Copyright (c) Steve Scherf et al.
# Submitted via: BonkEnc v1.0.15
# 
DISCID=2a110514
DTITLE=KEMAL MONTENO - Zlatna kolekcija - CD 2
DYEAR=2007
DGENRE=Zabavni
TTITLE0=Tužna je muzika
TTITLE1=Jedne noći u decembru
TTITLE2=Dušo moja
TTITLE3=Večeras pišem posljednje pismo
TTITLE4=Sve više volim Zagreb
TTITLE5=Sinoć pod prozorom njenim
TTITLE6=Ni u tvom srcu
TTITLE7=Nemoj da te prevari ovaj pramen sijedi
TTITLE8=Kupačica
TTITLE9=Pjesma zaljubljenika
TTITLE10=Sunce djetinjstva
TTITLE11=Duga noć
TTITLE12=Crvene cipele
TTITLE13=Dunje i kolači
TTITLE14=Znam sve o tebi
TTITLE15=Lidija
TTITLE16=Malo tog je ostalo za reći
TTITLE17=Poljubi me
TTITLE18=Nije htjela
TTITLE19=Hvala svima
EXTD=
EXTT0=
EXTT1=
EXTT2=
EXTT3=
EXTT4=
EXTT5=
EXTT6=
EXTT7=
EXTT8=
EXTT9=
EXTT10=
EXTT11=
EXTT12=
EXTT13=
EXTT14=
EXTT15=
EXTT16=
EXTT17=
EXTT18=
EXTT19=
PLAYORDER=
